<?xml version="1.0" encoding="UTF-8" standalone="no"?>
<!-- Created with Inkscape (http://www.inkscape.org/) -->

<svg
   width="90.300003mm"
   height="90.300003mm"
   viewBox="0 0 90.300003 90.300003"
   version="1.1"
   id="svg5"
   xml:space="preserve"
   inkscape:version="1.2.2 (732a01da63, 2022-12-09)"
   sodipodi:docname="gallery.svg"
   xmlns:inkscape="http://www.inkscape.org/namespaces/inkscape"
   xmlns:sodipodi="http://sodipodi.sourceforge.net/DTD/sodipodi-0.dtd"
   xmlns:xlink="http://www.w3.org/1999/xlink"
   xmlns="http://www.w3.org/2000/svg"
   xmlns:svg="http://www.w3.org/2000/svg"><sodipodi:namedview
     id="namedview7"
     pagecolor="#505050"
     bordercolor="#ffffff"
     borderopacity="1"
     inkscape:showpageshadow="0"
     inkscape:pageopacity="0"
     inkscape:pagecheckerboard="1"
     inkscape:deskcolor="#505050"
     inkscape:document-units="mm"
     showgrid="false"
     inkscape:zoom="2.6280163"
     inkscape:cx="216.89363"
     inkscape:cy="209.66385"
     inkscape:window-width="3840"
     inkscape:window-height="2036"
     inkscape:window-x="2676"
     inkscape:window-y="-12"
     inkscape:window-maximized="1"
     inkscape:current-layer="layer1" /><defs
     id="defs2"><linearGradient
       inkscape:collect="always"
       id="linearGradient2383"><stop
         style="stop-color:#9a441f;stop-opacity:1;"
         offset="0"
         id="stop2379" /><stop
         style="stop-color:#961818;stop-opacity:1;"
         offset="0.34901625"
         id="stop4772" /><stop
         style="stop-color:#961818;stop-opacity:1;"
         offset="0.57442254"
         id="stop4770" /><stop
         style="stop-color:#961818;stop-opacity:1;"
         offset="0.63857991"
         id="stop4752" /><stop
         style="stop-color:#6e1213;stop-opacity:1;"
         offset="1"
         id="stop2381" /></linearGradient><linearGradient
       id="linearGradient2350"><stop
         style="stop-color:#961818;stop-opacity:1;"
         offset="0"
         id="stop2356" /><stop
         style="stop-color:#961818;stop-opacity:0;"
         offset="0.99828911"
         id="stop2358" /></linearGradient><linearGradient
       id="linearGradient2350-1"><stop
         style="stop-color:#961818;stop-opacity:1;"
         offset="0"
         id="stop2346" /><stop
         style="stop-color:#751818;stop-opacity:1;"
         offset="0.99828911"
         id="stop2354" /></linearGradient><linearGradient
       inkscape:collect="always"
       xlink:href="#linearGradient2383"
       id="linearGradient2385"
       x1="3.3223729"
       y1="8.2555933"
       x2="94.335251"
       y2="85.274239"
       gradientUnits="userSpaceOnUse" /></defs><g
     inkscape:label="Layer 1"
     inkscape:groupmode="layer"
     id="layer1"><path
       style="fill:url(#linearGradient2385);stroke-width:0.3;fill-opacity:1;stroke-dasharray:none;stroke:#bfbfbf;stroke-opacity:0.23156899"
       d="M 2.227691,82.033653 C -0.08062119,81.029701 0,82.026008 0,54.504167 0,32.932079 0.07163109,29.459776 0.5351381,28.563452 c 1.1421932,-2.208757 -0.59670617,-2.105248 35.3424819,-2.1038 32.097613,0.0013 32.760246,0.01509 33.89298,0.705718 0.635424,0.387419 1.310111,1.111535 1.499306,1.609147 0.211649,0.556682 0.343983,10.47073 0.343983,25.770134 0,27.584965 0.09069,26.502925 -2.305156,27.503974 C 67.54452,82.785761 3.9243074,82.771562 2.227691,82.033667 Z M 62.794444,70.987698 V 67.539284 L 60.228508,64.990475 C 58.817245,63.588632 57.538563,62.441667 57.387,62.441667 c -0.151568,0 -2.045152,1.581915 -4.207962,3.515367 -4.172215,3.729767 -5.241353,4.262134 -6.851205,3.411491 -0.547737,-0.289426 -5.183982,-4.197833 -10.302759,-8.68535 -5.118781,-4.487517 -9.501824,-8.084312 -9.740097,-7.992875 -0.238274,0.09143 -4.499065,3.473834 -9.468424,7.516445 l -9.0351985,7.350199 -0.010122,3.439584 -0.010122,3.439583 H 35.277778 62.794444 Z m -7.49578,-15.689781 c 1.961184,-1.496396 2.962685,-1.306026 5.410066,1.028382 L 62.803969,58.32482 62.711012,46.360327 62.618055,34.395833 35.355738,34.30546 C 13.652074,34.233513 8.0585483,34.305954 7.9224022,34.660745 7.8283435,34.905858 7.7932622,40.375184 7.8444432,46.8148 L 7.9375,58.523194 15.345833,52.501849 C 25.241943,44.458484 25.254037,44.45 26.824355,44.45 c 1.220666,0 2.04397,0.640853 11.096032,8.637044 l 9.777536,8.637044 3.164639,-2.728016 c 1.740552,-1.50041 3.736798,-3.164579 4.436102,-3.698155 z m -10.635473,-5.21703 c -2.210252,-0.661412 -4.093747,-3.250537 -4.093747,-5.627423 0,-4.632886 4.964808,-7.499731 8.946759,-5.166152 4.390235,2.572848 3.872311,8.614456 -0.909733,10.612029 -1.440236,0.60162 -2.392934,0.645484 -3.943279,0.181546 z m 31.889587,21.782059 c -2.067959,-1.045989 -2.136599,-0.441487 2.67208,-23.53226 2.435458,-11.694806 4.298999,-21.381094 4.141205,-21.52509 -0.228434,-0.20846 -53.563332,-11.164825 -55.481846,-11.397404 -0.37719,-0.04573 -0.718624,0.873185 -1.280082,3.445124 -0.847451,3.882017 -1.498679,4.782795 -3.457778,4.782795 -1.444247,0 -2.574649,-0.807503 -2.840221,-2.02891 -0.124101,-0.570763 0.288878,-3.143777 1.003831,-6.254244 1.283897,-5.5857052 1.802835,-6.5335126 3.577195,-6.5335126 0.965883,0 61.536444,12.2103756 63.221797,12.7448356 1.343558,0.426071 1.855534,1.219774 1.833467,2.842389 -0.0087,0.643346 -2.127863,11.317267 -4.709149,23.719822 -4.445868,21.361488 -4.743584,22.593399 -5.648212,23.371528 -1.078346,0.927551 -1.758202,1.009371 -3.032287,0.364927 z"
       id="path133" /></g></svg>
